<?xml version="1.0" standalone="no"?>
<!DOCTYPE svg PUBLIC "-//W3C//DTD SVG 20010904//EN"
 "http://www.w3.org/TR/2001/REC-SVG-20010904/DTD/svg10.dtd">
<svg version="1.0" xmlns="http://www.w3.org/2000/svg"
 width="1000.000000pt" height="1000.000000pt" viewBox="0 0 1000.000000 1000.000000"
 preserveAspectRatio="xMidYMid meet">

<g transform="translate(0.000000,1000.000000) scale(0.100000,-0.100000)"
fill="#000000" stroke="none">
<path d="M1450 6415 c-316 -129 -598 -246 -627 -260 -64 -33 -100 -85 -117
-168 -15 -71 -6 -133 24 -184 18 -31 18 -36 5 -57 -26 -40 -47 -128 -43 -178
3 -26 16 -69 30 -95 l24 -48 -23 -52 c-55 -121 -32 -249 58 -316 27 -19 237
-87 888 -288 l355 -109 590 302 c325 165 597 305 604 311 17 13 15 73 -4 91
-8 9 -28 16 -44 16 -25 0 -567 -269 -1038 -516 -57 -30 -113 -54 -124 -54 -21
0 -573 167 -959 291 -103 33 -193 67 -203 77 -29 33 -13 154 23 176 6 4 75
-13 153 -38 299 -94 990 -306 999 -306 14 0 1171 591 1192 608 39 34 10 112
-43 112 -13 0 -132 -56 -264 -124 -881 -452 -894 -458 -928 -447 -18 5 -224
69 -458 141 -590 182 -668 208 -680 230 -21 40 -3 155 27 173 5 3 58 -10 119
-29 342 -109 1016 -314 1033 -314 23 0 1192 595 1203 613 5 7 7 28 6 47 -2 26
-10 38 -31 50 -31 17 -11 26 -804 -380 -204 -104 -377 -190 -384 -190 -14 0
-252 72 -669 201 -534 166 -516 158 -507 241 3 25 12 56 19 68 12 20 19 22 78
17 114 -9 496 -110 880 -232 80 -25 165 -50 188 -56 l44 -9 536 271 c296 149
561 285 591 302 l54 30 -259 69 c-142 37 -411 109 -597 158 -186 50 -339 90
-340 89 -1 0 -261 -106 -577 -234z m583 -427 c64 -18 117 -35 117 -38 0 -3
-30 -20 -66 -38 l-66 -33 -126 37 c-70 20 -131 39 -136 42 -10 6 111 59 139
61 11 1 73 -13 138 -31z"/>
<path d="M6512 6105 c-80 -7 -116 -14 -122 -25 -8 -12 0 -17 38 -25 40 -9 47
-14 50 -36 2 -14 -29 -152 -69 -305 -90 -352 -95 -377 -81 -408 16 -35 69 -44
129 -21 46 18 137 86 157 117 18 29 -2 32 -41 5 -78 -52 -109 -44 -101 25 3
25 43 185 89 356 50 190 79 315 73 320 -5 5 -60 3 -122 -3z"/>
<path d="M8480 6105 c-58 -7 -108 -14 -112 -14 -5 -1 -8 -9 -8 -19 0 -13 12
-21 43 -28 l42 -9 -1 -45 c0 -25 -6 -63 -12 -85 l-11 -40 -108 0 c-92 0 -115
-3 -155 -23 -153 -76 -266 -265 -256 -433 3 -62 7 -73 36 -102 31 -31 36 -32
110 -32 68 0 86 4 156 38 43 20 80 37 82 37 2 0 4 -9 4 -21 0 -87 99 -79 233
18 26 19 47 41 47 49 0 18 -1 18 -54 -7 -55 -27 -76 -21 -76 23 0 35 125 524
159 622 12 33 21 65 21 73 0 15 3 15 -140 -2z m-104 -296 c22 -18 17 -56 -27
-233 l-41 -163 -56 -27 c-77 -37 -145 -34 -176 7 -55 75 17 318 116 389 65 46
147 58 184 27z"/>
<path d="M7579 6071 c-21 -21 -29 -39 -29 -63 0 -43 15 -58 60 -58 74 1 129
90 82 133 -30 27 -79 21 -113 -12z"/>
<path d="M5733 5870 c-99 -21 -190 -95 -241 -197 -44 -86 -72 -187 -72 -257 0
-160 107 -197 297 -101 37 19 71 31 75 29 4 -3 8 -15 8 -28 0 -33 19 -46 65
-46 65 0 221 102 208 136 -4 10 -13 8 -41 -11 -40 -27 -77 -32 -85 -12 -10 27
23 166 85 355 22 68 38 126 35 128 -3 3 -25 -5 -49 -17 l-44 -21 -42 21 c-48
24 -138 34 -199 21z m137 -60 c14 -14 20 -33 20 -63 0 -43 -60 -279 -80 -317
-18 -34 -105 -71 -157 -68 -64 4 -87 36 -85 116 2 56 29 159 58 214 21 40 74
98 109 120 41 25 109 24 135 -2z"/>
<path d="M4147 5853 c-111 -37 -199 -165 -167 -242 14 -36 59 -73 143 -120 70
-40 86 -66 67 -112 -27 -63 -136 -93 -179 -50 -18 18 -41 79 -41 109 0 23 -18
12 -68 -40 -58 -61 -57 -75 11 -110 58 -31 187 -30 268 1 148 57 215 198 126
264 -18 14 -65 43 -104 66 -40 23 -77 50 -83 61 -24 45 1 118 47 139 62 29
118 -4 129 -74 3 -25 9 -45 11 -45 3 0 28 19 57 42 28 23 53 43 55 45 13 9
-24 56 -54 69 -45 18 -157 17 -218 -3z"/>
<path d="M7464 5835 c-91 -47 -111 -62 -97 -76 8 -8 17 -7 34 5 13 9 38 16 56
16 44 0 44 -9 -12 -230 -25 -99 -45 -194 -45 -213 0 -55 44 -82 107 -65 38 10
147 81 173 113 25 30 -3 36 -43 9 -50 -34 -91 -30 -95 9 -2 15 17 105 42 200
61 229 61 230 41 250 -27 27 -85 21 -161 -18z"/>
<path d="M4875 5847 c-182 -61 -295 -209 -295 -389 0 -135 62 -188 220 -188
147 0 264 58 342 169 75 107 100 254 57 331 -34 60 -87 84 -194 87 -55 2 -105
-2 -130 -10z m150 -43 c45 -18 57 -110 29 -223 -33 -130 -82 -213 -146 -247
-36 -19 -108 -18 -135 1 -90 63 -18 367 106 451 35 24 107 33 146 18z"/>
<path d="M6884 5396 c-73 -73 -20 -163 72 -120 58 28 83 103 46 137 -31 29
-80 21 -118 -17z"/>
</g>
</svg>
